/* XPM */
static char *bitcoin32[] = {
/* columns rows colors chars-per-pixel */
"28 32 178 2 ",
"   c #01600DD31CB6",
".  c #046911291E7B",
"X  c #08F7148E1EEA",
"o  c #047C13632200",
"O  c #09A1159A22E2",
"+  c #05B4196D23B7",
"@  c #0BCB19D8258D",
"#  c #05021B5E2BF0",
"$  c #0CEF1B112A9C",
"%  c #07F316482AF2",
"&  c #10FD1EC329E5",
"*  c #03041D313145",
"=  c #0AC6213A2378",
"-  c #0C98214F2BF9",
";  c #096F25742A3B",
":  c #122422752D37",
">  c #1584286F2707",
",  c #1DBD308D2A1D",
"<  c #048D21C534AA",
"1  c #0A5723C231A0",
"2  c #0AE6268C3CC4",
"3  c #069129D73A37",
"4  c #166A2D9B36F4",
"5  c #0D77314738EE",
"6  c #1D8435FA3CF0",
"7  c #17F1346C3645",
"8  c #20882B80387A",
"9  c #21E237EA3C9A",
"0  c #2FCF3E7F3F54",
"q  c #48E02E0832AC",
"w  c #1794420933A3",
"e  c #196E530A3C74",
"r  c #3C69632A3525",
"t  c #2F0171DB35F6",
"y  c #09322679418B",
"u  c #06173A724769",
"i  c #0AB6377A48A2",
"p  c #11CF3D0C41ED",
"a  c #13503F9D4FAB",
"s  c #09F537075757",
"d  c #06353B7D5103",
"f  c #0A9B3CA75970",
"g  c #34143E9749F3",
"h  c #0A993EF361F3",
"j  c #4386253548D0",
"k  c #7FE539ED6C69",
"l  c #15C94A4448C9",
"z  c #0D0F4BED5C2A",
"x  c #0C4D44CF55F0",
"c  c #11BB4B615AFC",
"v  c #122945A15722",
"b  c #297D446A4889",
"n  c #271A432A465C",
"m  c #31C04D734ECF",
"M  c #308D4F1A5277",
"N  c #2B9C5EB05025",
"B  c #3C225E615CA8",
"V  c #309D525852C7",
"C  c #30C5736F5B9A",
"Z  c #280D62E644E2",
"A  c #17824CAF6066",
"S  c #0C22524C6396",
"D  c #0599593B6618",
"F  c #039054A46CEE",
"G  c #1B735BAA64F4",
"H  c #15E056826CD9",
"J  c #05B249856498",
"K  c #187066A067A3",
"L  c #0E4274306F78",
"P  c #1EC274966EE4",
"I  c #12A162E0756A",
"U  c #038872CB7F3A",
"Y  c #094277DD7B95",
"T  c #16A275C07880",
"R  c #0BED67896B7E",
"E  c #2469692262A1",
"W  c #206974D36A8E",
"Q  c #40337A6B4E67",
"!  c #54927A014829",
"~  c #49FD72D46E69",
"^  c #4F547C247516",
"/  c #8CAB417E70DE",
"(  c #A1CD55CA71D0",
")  c #DCDE7A8F621B",
"_  c #2709875D5C06",
"`  c #2813A01D6A71",
"'  c #2472814678E0",
"]  c #2FB796EC7A95",
"[  c #1BB5B26C7BD0",
"{  c #303FAE0F76CE",
"}  c #4EAF88105CB0",
"|  c #630E91995639",
" . c #5D0AA30A4D9E",
".. c #61D9A9384989",
"X. c #71B6C0284DC4",
"o. c #673EBF645726",
"O. c #7190B7FC5015",
"+. c #54D3801F78AD",
"@. c #460A9EFE7999",
"#. c #62268D0F7F9C",
"$. c #5474B37966F3",
"%. c #4299A2837BDC",
"&. c #612FB3216E6F",
"*. c #7DD4BA5D6CF5",
"=. c #5B22C4387048",
"-. c #7D51C908642C",
";. c #6D17CBF279A9",
":. c #7C72D78D7242",
">. c #820598F77D6E",
",. c #F70A8F256E8B",
"<. c #F92B90B56EE5",
"1. c #E4A3874B6C1F",
"2. c #82E7D2604EE9",
"3. c #833DC9B15969",
"4. c #8641D2835ED7",
"5. c #9006D66D5760",
"6. c #8AC5D28E65EA",
"7. c #8206D16F725B",
"8. c #9BDFDD027A8B",
"9. c #9678D3DA6A35",
"0. c #9CF2E4596F62",
"q. c #A724E5277293",
"w. c #A9E8E9837327",
"e. c #A96745AD810E",
"r. c #B3F345EA88BF",
"t. c #D4C96DAA9BF9",
"y. c #164787FA87C1",
"u. c #157995CA8DBB",
"i. c #1A1C853E9F61",
"p. c #196B928695F6",
"a. c #24D18C318191",
"s. c #268D974B8996",
"d. c #1CD1ABF29717",
"f. c #1A11A82096F5",
"g. c #2475A9DF82FC",
"h. c #33A7ABE79AC7",
"j. c #24CAA5CF9527",
"k. c #2CEEBA54A45D",
"l. c #39EBBDE4A931",
"z. c #627F94A48986",
"x. c #698395F38A79",
"c. c #780A9B4381F8",
"v. c #4B68BED28985",
"b. c #7942AF029CA0",
"n. c #73B9B4178878",
"m. c #7E94BAA2A24E",
"M. c #3174C4DEAAEE",
"N. c #255CCA58B27B",
"B. c #3145CD43B062",
"V. c #304FD28CB157",
"C. c #2A75C7B3AC77",
"Z. c #6F38C2C19650",
"A. c #782BC8B4913B",
"S. c #6A4FCA598A8F",
"D. c #8A6F9F06857F",
"F. c #82C897C890F2",
"G. c #891F8DB79559",
"H. c #90AFA3CD8817",
"J. c #9F38A420A98B",
"K. c #A5ACAB76AFD6",
"L. c #AFE5E0C59C2D",
"P. c #B7B4E2EF9A05",
"I. c #90A0CFD8B403",
"U. c #8E37D7ADBA31",
"Y. c #BCABE4ACA218",
"T. c #CAC2F2D6BB4B",
"R. c #940CD82BC22D",
"E. c #B561DD1ECD62",
"W. c #9A8EE59DC8FB",
"Q. c #A712F3BFCCDD",
"!. c #A0AAEE6AD239",
"~. c #AB0DFC83DAE3",
"^. c #DC16F247EBF1",
"/. c #EDABF9ABF30C",
"(. c #FF1CFF59FF70",
"). c #F799F898F80E",
"_. c #E513E526E656",
"`. c None",
/* pixels */
"`.`.`.`.`.`.`.`.`.`.`.`.`.`.`.`.`.`.`.`.`.`.`.`.`.`.`.`.",
"`.`.`.`.`.`.`.`.`.`.`.`.`.`.`.`.`.`.`.`.`.`.`.`.`.`.`.`.",
"`.`.`.`.`.`.`.`.`.`.`.`.`.`.`.`.`.`.`.`.`.`.`.`.`.`.`.`.",
"`.`.`.`.`.`.`.`.`.`.`.`.`.`.`.`.`.`.`.`.`.`.`.`.`.`.`.`.",
"`.`.`.`.`.`.6.4.`.`.`.`.+ o `.`.`.`.l.M.`.`.`.`.`.`.`.`.",
"`.`.`.`.`.*. .X...`.`.`.. . o `.`.`.y.j.a.`.`.`.`.`.`.`.",
"`.`.`.8.0.6.Z t t `.`.X o & . X `.`.I S y `.q.`.`.`.`.`.",
"`.`.`.`.-.4.} e `.`.X X g #.@   O `.`.c `.w.5.3.`.`.`.`.",
"`.`.`.`.`.6.`.`.`..   @ K.Y.r     X `.`.`.9.4.`.`.`.`.`.",
"`.`.d.f.p.`.`.`.    g J.).P.O.l #   . `.`.`.`.t.t.`.`.`.",
"`.`.L Y S `.`.  8 G._.(.(.P.2.$.R u . . `.`.k r.e.`.`.`.",
"`.`.`.G 2 % `.o F./.(.(.).L.2.o.Y T v o `.$ j / ( `.`.`.",
"`.`.N.N.`.`.`.O c.Z.E.^.U.v.;.&.G A v O `.`.`.<.<.`.`.`.",
"`.`.`.p.i `.`.o D.A.` S.{ [ [ E $ I c X `.`.q ) 1.`.`.`.",
"`.`.V.B.`.`.`.o >.T.` 7.:.{ ' x i i.v O `.`.`.M.C.`.`.`.",
"`.`.d.y.v `.`.O g H.n.7.w.%.U J H H 1 O `.`.K u.d.`.`.`.",
"`.`.`.`.`.O `.`.. X 4 | w.{ U x % . X `.`.O c `.`.`.`.`.",
"`.O . o `.`.$ `.`.O   , 9.%.D .   @ `.`.O `.O O o `.`.`.",
"`.`.. & & o o o `.`.O   ! @.3 . @ `.`..     & $ o `.`.`.",
"`.`.. 4 x.^ 4 o o `.`.X > V + @ `.@ o + b #.x.: o `.`.`.",
"`.`.O   n R.W.z.: o @ `.O X O `.O   9 m.Q.I.6   O `.`.`.",
"`.`.o % < M W.~.V o o `.`.`.`.O - 1 ~ ~.U.n * o + `.`.`.",
"`.`.`.O f < B !.^ 2 2 o `.`.`.o ' l x.W.m 3 x o `.`.`.`.",
"`.`.`.o d J * ~ z.* f # @ `.o l M.p b.B < D u o `.`.`.`.",
"`.`.`.O 3 P G 7 m 1 h y o `.o s.k.5 V 7 W W 3 O `.`.`.`.",
"`.`.`.`.& C ] W # o s s O $ - M.s.X w $.=.Q O `.`.`.`.`.",
"`.`.`.`.`.O u D z # * s # @ 5 h.l = _ _ e O `.`.`.`.`.`.",
"`.`.`.`.`.`.X X + o o # o + - 5 . + = O X `.`.`.`.`.`.`.",
"`.`.`.`.`.`.`.`.`.`.$ . . @   . `.`.`.`.`.`.`.`.`.`.`.`.",
"`.`.`.`.`.`.`.`.`.`.`.`.X . O `.`.`.`.`.`.`.`.`.`.`.`.`.",
"`.`.`.`.`.`.`.`.`.`.`.`.`.`.`.`.`.`.`.`.`.`.`.`.`.`.`.`.",
"`.`.`.`.`.`.`.`.`.`.`.`.`.`.`.`.`.`.`.`.`.`.`.`.`.`.`.`."
};
