/* XPM */
static char *bitcoin64[] = {
/* columns rows colors chars-per-pixel */
"57 64 229 2 ",
"   c #01450AE016DF",
".  c #01620DBE1C74",
"X  c #027A11261D7F",
"o  c #090C17281CC4",
"O  c #01A40E72209E",
"+  c #0375120421A1",
"@  c #09DA158F22E4",
"#  c #05271B07243E",
"$  c #0BC51A042488",
"%  c #03B6159B2A6F",
"&  c #03921AAB2B94",
"*  c #0CD81C5F29C7",
"=  c #0A80138D294E",
"-  c #116D1E032B76",
";  c #112E1AC024AF",
":  c #04E51D2432DF",
">  c #0760181E34D0",
",  c #11FF1DF1309C",
"<  c #0A7123AA28E5",
"1  c #136722792CA1",
"2  c #1489276B2901",
"3  c #047F22FB347F",
"4  c #07C827283905",
"5  c #154825C9327C",
"6  c #1D1F2AD53557",
"7  c #15DC28D1360B",
"8  c #068F362539D2",
"9  c #17B535F13968",
"0  c #1C7634E922D3",
"q  c #21852A8B361D",
"w  c #2719369D39AF",
"e  c #336D1A473D1D",
"r  c #1B91570C3EC3",
"t  c #2C67509136B7",
"y  c #273564803802",
"u  c #383C7AB13A78",
"i  c #2C9D71C02D4F",
"p  c #46E172213F0A",
"a  c #09B32B2B4322",
"s  c #07FC2B20454A",
"d  c #0BF73B564C46",
"f  c #0BC835FD44DD",
"g  c #16E939F545BB",
"h  c #0B7D3AD1551F",
"j  c #121832694AF0",
"k  c #26123B4442A3",
"l  c #0D323F8E6417",
"z  c #5E2E1C3F5EEB",
"x  c #695C2222610E",
"c  c #4DCE25AC4B51",
"v  c #15BD458D4896",
"b  c #09D248C4582A",
"n  c #10F54C4F5C08",
"m  c #18BF48075475",
"M  c #198055C356BB",
"N  c #0FB84E70513D",
"B  c #2BEE48C84A96",
"V  c #32C44682472C",
"C  c #38F858D25755",
"Z  c #286450B05FBA",
"A  c #2E9F6ED554C4",
"S  c #0C1D46626C5F",
"D  c #0B964A9C6739",
"F  c #13A7484465B5",
"G  c #05AB540C6C37",
"H  c #091153656ABD",
"J  c #0BBD5D336AF0",
"K  c #05405824690C",
"L  c #157A5744696C",
"P  c #042559897448",
"I  c #1453564273D3",
"U  c #08D666D86E8D",
"Y  c #0896698B760F",
"T  c #18A267E4756F",
"R  c #02FF73447CB3",
"E  c #099075DF7892",
"W  c #17646D756CB2",
"Q  c #294B792968AC",
"!  c #25767C517892",
"~  c #2A1769797444",
"^  c #697E414B413F",
"/  c #4B916E1D4D71",
"(  c #54575C09652D",
")  c #46866B106591",
"_  c #514E7B807369",
"`  c #51B96A2B6B2F",
"'  c #65B974066EBA",
"]  c #5EB0446960EA",
"[  c #8D112F156F2E",
"{  c #98A152114588",
"}  c #EC927A7C5C28",
"|  c #E5947E9F6B66",
" . c #3E3782603374",
".. c #5439A1043D97",
"X. c #1B7896885DBE",
"o. c #1608997061C8",
"O. c #16E88AA279F3",
"+. c #2B68884D69A7",
"@. c #2DF2952E6879",
"#. c #2E0C944E79BA",
"$. c #25BF9F3A7EAD",
"%. c #34CA95E57C6F",
"&. c #34118C377048",
"*. c #1DECB2907BDD",
"=. c #3928A734683F",
"-. c #3C81B6846671",
";. c #24E5B3DA7989",
":. c #31FCAC277178",
">. c #4EB688624476",
",. c #7791BC605887",
"<. c #551D89B176C6",
"1. c #4C59A9D06F80",
"2. c #7654BA6F6C32",
"3. c #6C04B32C6252",
"4. c #666897566158",
"5. c #7ABEC7004C62",
"6. c #7893C8045773",
"7. c #7A5DCF32528F",
"8. c #70B0CFE96FD4",
"9. c #5101C9B07793",
"0. c #8134AEDF5E4F",
"q. c #8AC0BBC3690F",
"w. c #FCFC8D9168D7",
"e. c #F4949394769F",
"r. c #D1B8844C7424",
"t. c #8485CF624F73",
"y. c #824CD1EB4D2D",
"u. c #8CB8D6894EA4",
"i. c #82F5CDA7571B",
"p. c #8336D1D5533E",
"a. c #86A8D49D5A20",
"s. c #92F4DCCD5A03",
"d. c #884ACC6565C8",
"f. c #88C3D56C797E",
"g. c #97B8DA6B767D",
"h. c #8997CF606B22",
"j. c #9BE3E40A661F",
"k. c #9BA6E5BC7AC8",
"l. c #9C68E7D272E1",
"z. c #8627E1B67AC5",
"x. c #A715E7006D00",
"c. c #A25FE4E47BA7",
"v. c #A7B8E7167424",
"b. c #0931773B81B9",
"n. c #19A77865880B",
"m. c #1D0A74738C8E",
"M. c #26F27323847E",
"N. c #ACF73F1487F3",
"B. c #B8DB481C8DC5",
"V. c #C915559E933C",
"C. c #D6AB68E999F5",
"Z. c #CC3C766E9D83",
"A. c #C7AD65B295AB",
"S. c #0ADD87A488EC",
"D. c #1BE4848386D2",
"F. c #134F93BE959C",
"G. c #27B691648C7F",
"H. c #17AAAB079738",
"J. c #198AB2029870",
"K. c #1E62ADD381DA",
"L. c #27BDB31D8007",
"P. c #27C7A9E096CC",
"I. c #285CB54C9A89",
"U. c #376DAE95927C",
"Y. c #19A48B4DA5CD",
"T. c #110E98F8A0EC",
"R. c #1BA5B169A140",
"E. c #399FB936A4DD",
"W. c #2A85B3B7A1B2",
"Q. c #20BA8CDCA401",
"!. c #69F3988D89BB",
"~. c #662E97498DB0",
"^. c #5740BBEC8609",
"/. c #778EA8759A7C",
"(. c #67DEAF7C926E",
"). c #79ADB58AA70C",
"_. c #5CDA8A19839D",
"`. c #1DA9C571A9CF",
"'. c #1C44CBD5B2A1",
"]. c #28D2C66FA913",
"[. c #32EFC539AC19",
"{. c #3AE3C477AC80",
"}. c #29FCD685B34D",
"|. c #375CD6DCBBB8",
" X c #2B8ED030B197",
".X c #5B26C54D8B66",
"XX c #751FCD5F8E41",
"oX c #46E2CA54B314",
"OX c #7C44C93BAA7C",
"+X c #3808EA86CB06",
"@X c #3664F14ACDC3",
"#X c #961C9BC9A20C",
"$X c #84DFB8ACA9A8",
"%X c #95F8B9D0B588",
"&X c #A350B4459F90",
"*X c #EC6898E68578",
"=X c #8B62CFED8FD7",
"-X c #AB64DAFF8C89",
";X c #AACADA4C87FD",
":X c #AD02DE479608",
">X c #8B88E3A2812F",
",X c #AC2BE62084FB",
"<X c #B5B1E6689BEE",
"1X c #8B24C972B402",
"2X c #93F8D06CB546",
"3X c #B319D19DAD7E",
"4X c #C382D882B0AA",
"5X c #C768EB4ABD4F",
"6X c #B8E4BC86C086",
"7X c #952AD3DFC137",
"8X c #A3D9DF4DC56A",
"9X c #9DC4E751CD94",
"0X c #A285E9D6CB8D",
"qX c #AA0EEF29D8D1",
"wX c #AB7BFF1BD4B6",
"eX c #AA5CFECEDD65",
"rX c #A8A2F8ACD834",
"tX c #B272FDD4D8EA",
"yX c #A941F3DACEEE",
"uX c #ACD6FF55E221",
"iX c #CE7FD5E3D4CB",
"pX c #CB8CEF02CBCA",
"aX c #E513FE11C708",
"sX c #D405F09DE714",
"dX c #FA3CFEB6F6C4",
"fX c #FEC3FE7EFEDA",
"gX c #F3D5F880F64B",
"hX c #E9FAF13AF00F",
"jX c None",
/* pixels */
"jXjXjXjXjXjXjXjXjXjXjXjXjXjXjXjXjXjXjXjXjXjXjXjXjXjXjXjXjXjXjXjXjXjXjXjXjXjXjXjXjXjXjXjXjXjXjXjXjXjXjXjXjXjXjXjXjX",
"jXjXjXjXjXjXjXjXjXjXjXjXjXjXjXjXjXjXjXjXjXjXjXjXjXjXjXjXjXjXjXjXjXjXjXjXjXjXjXjXjXjXjXjXjXjXjXjXjXjXjXjXjXjXjXjXjX",
"jXjXjXjXjXjXjXjXjXjXjXjXjXjXjXjXjXjXjXjXjXjXjXjXjXjXjXjXjXjXjXjXjXjXjXjXjXjXjXjXjXjXjXjXjXjXjXjXjXjXjXjXjXjXjXjXjX",
"jXjXjXjXjXjXjXjXjXjXjXjXjXjXjXjXjXjXjXjXjXjXjXjXjXjXjXjXjXjXjXjXjXjXjXjXjXjXjXjXjXjXjXjXjXjXjXjXjXjXjXjXjXjXjXjXjX",
"jXjXjXjXjXjXjXjXjXjXjXjXjXjXjXjXjXjXjXjXjXjXjXjXjXjXjXjXjXjXjXjXjXjXjXjXjXjXjXjXjXjXjXjXjXjXjXjXjXjXjXjXjXjXjXjXjX",
"jXjXjXjXjXjXjXjXjXjXjXjXjXjXjXjXjXjXjXjXjXjXjXjXjXjXjXjXjXjXjXjXjXjXjXjXjXjXjXjXjXjXjXjXjXjXjXjXjXjXjXjXjXjXjXjXjX",
"jXjXjXjXjXjXjXjXjXjXjXjXjXjXjXjXjXjXjXjXjXjXjXjXjXjXjXjXjXjXjXjXjXjXjXjXjXjXjXjXjXjXjXjXjXjXjXjXjXjXjXjXjXjXjXjXjX",
"jXjXjXjXjXjXjXjXjXjXjXjXjXjXjXjXjXjXjXjXjXjXjXjXjXjXjX2 jXjXjXjXjXjXjXjXjXjXjXjXjXjXjXjXjXjXjXjXjXjXjXjXjXjXjXjXjX",
"jXjXjXjXjXjXjXjXjXjXjXjXjXjXd.h.jXjXjXjXjXjXjXjXjXjX@ X 1 jXjXjXjXjXjXjXjXjXjX{.E.jXjXjXjXjXjXjXjXjXjXjXjXjXjXjXjX",
"jXjXjXjXjXjXjXjXjXjXjXjXjXd.p.p.i.g.jXjXjXjXjXjXjX# X O + 1 jXjXjXjXjXjXjX{.[.[.I.I.jXjXjXjXjXjXjXjXjXjXjXjXjXjXjX",
"jXjXjXjXjXjXjXjXjXjXjXjX,.7.p.p.a.,.jXjXjXjXjXjX@ X + . O + 2 jXjXjXjXjX! D.W.].].I.U.jXjXjXjXjXjXjXjXjXjXjXjXjXjX",
"jXjXjXjXjXjXjX<X,X,X,X2.y >.,.5... .jXjXjXjXjX@ . + + . + X X 5 jXjXjXjXjXJ E G.P.! M jXjXjXjXjXjXjXjXjXjXjXjXjXjX",
"jXjXjXjXjXjXjX;Xv.l.v.h.A r r i i u jXjXjXjX# . + O . . X + . + 7 jXjXjXjXT P U j > 7 jXjXjXjXjXjXjXjXjXjXjXjXjXjX",
"jXjXjXjXjXjXjXg.j.l.j.a.3.8 8 y u jXjXjXjX# . X . O * w X X X . + 5 jXjXjXjXU J s > jXjX,Xc.j.s.jXjXjXjXjXjXjXjXjX",
"jXjXjXjXjXjXjXh.6.6.6.a.h.m 8 i A jXjXjX; . O X . . ' &X<   + . X + jXjXjXjXT J s a jX;Xx.s.u.5.jXjXjXjXjXjXjXjXjX",
"jXjXjXjXjXjXjXjX8.8.6.a.l.jX8 y jXjXjX; . . O O . k iX<Xp   O X . . X jXjXjXjXL s jXjXv.j.u.0.t.jXjXjXjXjXjXjXjXjX",
"jXjXjXjXjXjXjXjXjXjX2.,.g.jXjXjXjXjX* . . O X O @ #XdX:X0.0 X X O .   o jXjXjXjXjXjXjXv.s.5.d.jXjXjXjXjXjXjXjXjXjX",
"jXjXjXjXjXI.I.jXjXjXjX8.=XjXjXjXjX; . X X O .   ( gXdX-Xs.>.X   O + . . o jXjXjXjXjXjXc.i.jXjXjXjXZ.jXjXjXjXjXjXjX",
"jXjXjXjXI.H.H.J.P.jXjXjXjXjXjXjX;   X . . . - ` iXfXdX-Xp.6.t + . . . . . . jXjXjXjXjX=XjXjXjXZ.C.C.Z.jXjXjXjXjXjX",
"jXjXjXjXJ.H.H.F.S.G.jXjXjXjXjX; X X   . = ( 6XgXfXfXdX-Xt.a.2.Q b : . . . . X jXjXjXjXjXjXjXV.C.C.C.Z.jXjXjXjXjXjX",
"jXjXjXjXO.S.S.S.b.L jXjXjXjX;   .   = V 6XhXfXfXfXfXdX-Xy.p.p.1.E U d # . . . . jXjXjXjXjX] V.V.C.V.A.jXjXjXjXjXjX",
"jXjXjXjXN b K E n.a = jXjXjX. . O k #XhXdXfXfXfXfXfXdX-Xy.p.u.7.@.R E J f O . . - jXjXjX* c B.N.[ [ [ jXjXjXjXjXjX",
"jXjXjXjXjXM v f h > O , jXjX+   q iXfXfXfXfXfXfXfXfXdX;X7.y.y.7.=.R E b.n.m . . - jXjX6 + e [ x x x jXjXjXjXjXjXjX",
"jXjXjXjXjXjXjXjXjX, = , jXjXO . k 3XiXgXfXgXfXfXfXfXgX:Xp.y.5.7.+.E b.n.M.~ + . 5 jXjX; @ q jXjXjX*XjXjXjXjXjXjXjX",
"jXjXjXjX|. X}.jXjXjXjX7 jXjX@ . k 3X^.$XsXfXfXfXgXsXOX.XXXf.y.7.+.n.M.m F ~ O . * jXjX* jXjXjX*Xe.w.e.jXjXjXjXjXjX",
"jXjXjXjX X'.'.R.W.jXjXjXjXjX* . q 5X=XX.1.2XsXhX7XU.*.*.L..X=XXX! Z , 4 M.T . . jXjXjXjXjXjX| w.w.w.e.jXjXjXjXjXjX",
"jXjXjXjXR.T.T.T.T & jXjXjXjX- O 6 4X5X=.o.o.(.XX*.*.*.*.*.K.U.<.5 + O F Q.L . O jXjXjXjXjX; { } } } | jXjXjXjXjXjX",
"jXjXjXjXjXjXjXG.f . * jXjXjX- . 1 4XaXXXo.o.:.>X9.*.*.*.*.K.O.n = O 4 m.Y.L . + jXjXjXjX= . ^ | jXjXjXjXjXjXjXjXjX",
"jXjXjXjXjXjXjXjXjXjX* 5 jXjX, O 1 3XaX5X1.X.=.l.l.9.-.L.K.b.R n = @ F Y.Y.L . = jXjXjX5 ; jXjXjX[.[.jXjXjXjXjXjXjX",
"jXjXjXoX X}.}.}.jXjXjXjXjXjXjX. ; 3XaXaX=XX.=.k.x.x.8.$.R R b.n O a m.Y.Q.L   @ jXjXjXjXjXjXjX X'.].].jXjXjXjXjXjX",
"jXjXjXjX].J.J.T.D.jXjXjXjXjXjX+ o ' 4XaXpX1.=.g.x.x.k.#.R R b.n % I Q.Q.M.f X # jXjXjXjXjXM.H.J.R.`.I.jXjXjXjXjXjX",
"jXjXjXjXP.E E Y H % = jXjXjXjX$   . q / &X2X1.x.x.v.c.$.R R b.n d M.I f %   X 1 jXjXjX2 & n U Y E D.jXjXjXjXjXjXjX",
"jXjXjXjXjXjXT T L = X X jXjXjXjX$ . . . = V / d.v.v.,X#.R b.b.b g 4 + X   o 2 jXjXjX, X + v T T T jXjXjXjXjXjXjXjX",
"jXjXjXjXjXjXjXjXjXjXjX= + jXjXjXjX* X . . O . / v.x.k.#.b.b.Y <   . X   X jXjXjXjX- + = jXjXjXjXjXjXjXjXjXjXjXjXjX",
"jXjXjX. @ * * - jXjXjXjX@ @ jXjXjXjX1 O X X . 2 q.x.c.#.R R b   . . X o jXjXjXjX1 O = jXjXjXjX1 * @ = = jXjXjXjXjX",
"jXjXjX. . . O O O ; 1 jXq . - jXjXjXjX- O . O   / v.c.#.R J &   . . @ jXjXjXjXjXo @ jXjX* = X . . O O * jXjXjXjXjX",
"jXjXjX$ . . O . O . X X = X X jXjXjXjXjX1 . . . o 0.v.%.Y 8 . .   @ jXjXjXjXjX* . + @ O   . . . O O O 1 jXjXjXjXjX",
"jXjXjX- . . @ k 6 .   . + X X @ 2 jXjXjXjX1 . .   t g.%.K #   . # jXjXjXjXjX$ . . . . .   X q k O . + jXjXjXjXjXjX",
"jXjXjXjX  + + C %X!.B < X X X + + % jXjXjXjX1 X . o 4.1.8   X $ jXjXjXjX- + X . . . o q C /.$Xk . O # jXjXjXjXjXjX",
"jXjXjXjX@ O . X ` qXqX$X) 7 X   . + + 5 jXjXjXjX+   9 C X   @ jXjXjXjX@ X . . X 1 C !.2XtX8XB   O . $ jXjXjXjXjXjX",
"jXjXjXjX$ . X X + ` qXuXuX7X_.g @ X X X < jXjXjXjXX X o   @ jXjXjXjX@ . X O 9 <.2XyXtXtX8XC   X O X 1 jXjXjXjXjXjX",
"jXjXjXjX- . . X O + _ rXeXuXuX9XC . + + . * jXjXjXjXo   @ jXjXjXjXo . . + * $XtXwXwXtX0XC .   O + + jXjXjXjXjXjXjX",
"jXjXjXjXjXX + @ > % $ _.eXuXeXuX/.# + + X X 1 jXjXjXjX; jXjXjXjX+   + * O 9 9XwXwXwXyX) . + & O O @ jXjXjXjXjXjXjX",
"jXjXjXjXjX+ . % b 4 + $ ~.uXeXuX1X< + 4 & . + 1 jXjXjXjXjXjXjX@   O A m . C yXeXwXyX_ X + s f O X * jXjXjXjXjXjXjX",
"jXjXjXjXjX= . X d D 3   1 ).uXeX9XB O f h =   + jXjXjXjXjXjX; X O M oX8 O _ wXwXyX<.@ O s K 4 O X jXjXjXjXjXjXjXjX",
"jXjXjXjXjX5 . . s H D :   7 ).eXrXC . 4 F a +   # jXjXjXjXjXX . 8 [.[.< . /.tXwX<.@ + 4 K G 3 . + jXjXjXjXjXjXjXjX",
"jXjXjXjXjXjXX . 3 H P b & . 9 1XuX_ X : S S & . O jXjXjXjX*   + G.+XP.+ < 2XtX!.2 . 4 G P H % . # jXjXjXjXjXjXjXjX",
"jXjXjXjXjXjX$ . % S G P h % O g 7X/.X + h S j + . * jXjXjXo X f |.+X! . g 0X/.;   4 K P P b + . , jXjXjXjXjXjXjXjX",
"jXjXjXjXjXjX1 . + h G G G h &   B /.5 + h S l % O + jXjX2 X X ! +X+XL . C /.2   3 b K K J d O X jXjXjXjXjXjXjXjXjX",
"jXjXjXjXjXjXjX@ . 9 ! +.Q Q A 2   B 5 O s S S s O O 5 jX$ X < W.+X|.v . B 6   t A +.+.+.Q 3   ; jXjXjXjXjXjXjXjXjX",
"jXjXjXjXjXjXjX5 . = <.8..X.X^.&.<   O . s S S h + . 1 jXX X v oX@X X8 . .   t 8.>Xz.z.f./ X + jXjXjXjXjXjXjXjXjXjX",
"jXjXjXjXjXjXjXjX; . < M W E Y U n % . X : l S S % X * jX+ # M +X+XE.<   X 9 =.-.-.-.-.A o O 1 jXjXjXjXjXjXjXjXjXjX",
"jXjXjXjXjXjXjXjXjX$   % b U U R Y n & . O s S S : + @ 6 + + ~ +X{.M     0 @.:.:.:.@.r o   = jXjXjXjXjXjXjXjXjXjXjX",
"jXjXjXjXjXjXjXjXjXjX$ .   3 v K K U d @ O O s F 4 O + 6 + X %.oXM X X < +.@.X.+.M <     ; jXjXjXjXjXjXjXjXjXjXjXjX",
"jXjXjXjXjXjXjXjXjXjXjX; .     + # & & + . O O a 3 . @ 6 . + ! M   X X o < < < X     o < jXjXjXjXjXjXjXjXjXjXjXjXjX",
"jXjXjXjXjXjXjXjXjXjXjXjXjXo X   X     . X . X . O O @ 6 X X -   X X X X X     . + $ jXjXjXjXjXjXjXjXjXjXjXjXjXjXjX",
"jXjXjXjXjXjXjXjXjXjXjXjXjXjXjX; ; $ @ $ $ = o   . . + q X     X @ @ @ $ $ $ < 1 jXjXjXjXjXjXjXjXjXjXjXjXjXjXjXjXjX",
"jXjXjXjXjXjXjXjXjXjXjXjXjXjXjXjXjXjXjXjXjXjX5 X . . o 6 X   X ; jXjXjXjXjXjXjXjXjXjXjXjXjXjXjXjXjXjXjXjXjXjXjXjXjX",
"jXjXjXjXjXjXjXjXjXjXjXjXjXjXjXjXjXjXjXjXjXjXjXjX+ . o O . X 1 jXjXjXjXjXjXjXjXjXjXjXjXjXjXjXjXjXjXjXjXjXjXjXjXjXjX",
"jXjXjXjXjXjXjXjXjXjXjXjXjXjXjXjXjXjXjXjXjXjXjXjXjX@ . . + jXjXjXjXjXjXjXjXjXjXjXjXjXjXjXjXjXjXjXjXjXjXjXjXjXjXjXjX",
"jXjXjXjXjXjXjXjXjXjXjXjXjXjXjXjXjXjXjXjXjXjXjXjXjXjX; @ jXjXjXjXjXjXjXjXjXjXjXjXjXjXjXjXjXjXjXjXjXjXjXjXjXjXjXjXjX",
"jXjXjXjXjXjXjXjXjXjXjXjXjXjXjXjXjXjXjXjXjXjXjXjXjXjXjXjXjXjXjXjXjXjXjXjXjXjXjXjXjXjXjXjXjXjXjXjXjXjXjXjXjXjXjXjXjX",
"jXjXjXjXjXjXjXjXjXjXjXjXjXjXjXjXjXjXjXjXjXjXjXjXjXjXjXjXjXjXjXjXjXjXjXjXjXjXjXjXjXjXjXjXjXjXjXjXjXjXjXjXjXjXjXjXjX",
"jXjXjXjXjXjXjXjXjXjXjXjXjXjXjXjXjXjXjXjXjXjXjXjXjXjXjXjXjXjXjXjXjXjXjXjXjXjXjXjXjXjXjXjXjXjXjXjXjXjXjXjXjXjXjXjXjX"
};
