/* XPM */
static char *bitcoin16[] = {
/* columns rows colors chars-per-pixel */
"14 16 104 2 ",
"   c #02760EF21EE6",
".  c #029611011FE2",
"X  c #056A122B21CF",
"o  c #06F213FA20FB",
"O  c #025F16AD2502",
"+  c #06C01649240F",
"@  c #06901686257B",
"#  c #07C613E72064",
"$  c #085D15E7258A",
"%  c #0A2F16322494",
"&  c #0798161A2664",
"*  c #0D041A0221B0",
"=  c #0E53194425D1",
"-  c #0D491D7A25A9",
";  c #07841B9928EC",
":  c #07011A432A35",
">  c #07D618AB27DE",
",  c #0E8B1D2F29DD",
"<  c #0A481C782CB1",
"1  c #0FD61D972A0C",
"2  c #05951E3D3368",
"3  c #0B3822412D2D",
"4  c #0FB920F22BCA",
"5  c #0544240E3222",
"6  c #058D1FEE362B",
"7  c #092523223238",
"8  c #099327823007",
"9  c #0DD429663306",
"0  c #03C126F93987",
"q  c #13452A423552",
"w  c #17822D1A362A",
"e  c #1ED629AC33BA",
"r  c #0DB63238357F",
"t  c #0C51303F3C62",
"y  c #0BB131B73EF6",
"u  c #17A63DCB32DE",
"i  c #1359326A3F6A",
"p  c #1AEE35043CEC",
"a  c #227436983D91",
"s  c #185A4F873CD2",
"d  c #36A352043C4E",
"f  c #078C2E944B77",
"g  c #0CCC324341B3",
"h  c #09CD38074167",
"j  c #0F463B784052",
"k  c #07E7349848D5",
"l  c #0E933728482A",
"z  c #0DF23F1F51EF",
"x  c #2E563F724187",
"c  c #155B462D4941",
"v  c #1734494B4B9F",
"b  c #08AB499653FD",
"n  c #1A884CFF5750",
"m  c #300A4AFF4C74",
"M  c #2E9B5AFE4738",
"N  c #3383500152F2",
"B  c #3268595C5E55",
"V  c #1F1E61D35C6D",
"C  c #2DED627E4AFD",
"Z  c #3A9865C84027",
"A  c #3DD57D9847D5",
"S  c #2C13737958D5",
"D  c #11794B486106",
"F  c #0F2357E268AA",
"G  c #18BB5442616D",
"H  c #13D15F47606F",
"J  c #0ACC620E6A4F",
"K  c #1BCB6C5D6709",
"L  c #1EB46C5766D6",
"P  c #158C7E787C72",
"I  c #22916B9166FD",
"U  c #3ECE664B67AF",
"Y  c #493F51BE5E69",
"T  c #4B3A7BC87825",
"R  c #A0A867FB5A58",
"E  c #8FF5429B7048",
"W  c #3E59996C6C50",
"Q  c #26E085947E4D",
"!  c #4EB584EE5FDE",
"~  c #6C73B42C53B0",
"^  c #6A4BBDE15DC5",
"/  c #6A0E873070EC",
"(  c #5ACEC03D77AB",
")  c #64EDB1247230",
"_  c #6DC0BEBD74F2",
"`  c #8667CEB56679",
"'  c #9725DC10640F",
"]  c #26C99EE9922A",
"[  c #1DC7A22C914C",
"{  c #20DCA4D39889",
"}  c #2374ADDBA27D",
"|  c #5D6E8D63802A",
" . c #5D86903A81AD",
".. c #75DD84A385EF",
"X. c #79F7AAF08BA7",
"o. c #6F7CA7359354",
"O. c #78DEB71BA4F5",
"+. c #5B86C7BB9505",
"@. c #AFA78E3A816C",
"#. c #8D78D43EAE05",
"$. c #B220C9BEA762",
"%. c #D197EF7DC5B6",
"&. c #EED3EF31F21F",
"*. c None",
/* pixels */
"*.*.*.*.*.*.*.*.*.*.*.*.*.*.",
"*.*.*.*.*.*.*.*.*.*.*.*.*.*.",
"*.*.*.~ *.*.. *.*.] *.*.*.*.",
"*.*.` A *.  x - *.F ! ' *.*.",
"*.[ *.*.% Y $.Z O *.*.@.*.*.",
"*.P z = ..&.%.^ H 7 *.E *.*.",
"*.} *.e X.#.+.W G l *.R *.*.",
"*.{ *.*./ _ ( J D g *.Q *.*.",
"*.t < *.1 d ) b ; *.$ y *.*.",
"*., N w *.* M 8 *.4 m a X *.",
"*.@ U O.p + *.*.3  .o.q *.*.",
"*.: k T B 6 *.j I | n 0 *.*.",
"*.*.v V i f & K L C S 9 *.*.",
"*.*.*.h 5 2 > c r s u *.*.*.",
"*.*.*.*.*.*.o # *.*.*.*.*.*.",
"*.*.*.*.*.*.*.*.*.*.*.*.*.*."
};
